# xmcd
#
# Track frame offsets:
#	150
#	10197
#	22701
#	32317
#	42609
#	52503
#	62875
#	73090
#	83522
#	95637
#	106653
#	116809
#	130274
#	141171
#	152366
#	162555
#	172850
#	184788
#	194517
#	202833
#	213635
#	222888
#	233895
#	242355
#	255257
#
# Disc length: 3529 seconds
# Revision: 0
# Processed by: cddbd v1.5.2PL0 Copyright (c) Steve Scherf et al.
# Submitted via: dBpowerAMP V12.0
#
DISCID=440dc719
DTITLE=Various Artist - The Arock, Serock and Sylvia Soul Story Volume 2
DYEAR=2016
DGENRE=Soul
TTITLE0=The Corvairs - Love Is Such A Good Thing
TTITLE1=Sterling Magee - Get In My Arms Little Girlie
TTITLE2=Gene Burks - Take My Hand
TTITLE3=Tutti Hill - When The Going Gets Rough
TTITLE4=Joan Moody - I Cant Stay Away
TTITLE5=Gary and Gary - I'm Leavin' (For Parts Unknown)
TTITLE6=The Diplomats - I Really Love You
TTITLE7=Garrett Saunders - I Keep Comin' Back For More
TTITLE8=Freddie Solomon - I Dont Care
TTITLE9=Ansler Montel - Chained Am I
TTITLE10=Vivian Collins - Hey Officer
TTITLE11=Theola Kilgore - This Is My Prayer
TTITLE12=Sinner Strong - Nobody But Me
TTITLE13=Van McCoy - It A'int No Big Thing
TTITLE14=The D.C. Playboys - You Were All I Needed
TTITLE15=Joan Moody - Music To My Ears
TTITLE16=Billy Washington - I Wanna Come In
TTITLE17=Chet "Poison" Ivey and His Fabulous Avengers - Something Else
TTITLE18=Marie Knight with Junior Lewis - Nothing In The World
TTITLE19=Garrett Saunders - Easier Said Than Done
TTITLE20=Junior Lewis - It Won't Work Out
TTITLE21=Junior Lewis - Where You Are
TTITLE22=Don Covay - Did You Hear
TTITLE23=Eddie King - Kindness, Love And Understanding
TTITLE24=The Larks - Another Sleepless Night
EXTD=
EXTT0=
EXTT1=
EXTT2=
EXTT3=
EXTT4=
EXTT5=
EXTT6=
EXTT7=
EXTT8=
EXTT9=
EXTT10=
EXTT11=
EXTT12=
EXTT13=
EXTT14=
EXTT15=
EXTT16=
EXTT17=
EXTT18=
EXTT19=
EXTT20=
EXTT21=
EXTT22=
EXTT23=
EXTT24=
PLAYORDER=
